<?xml version="1.0" encoding="UTF-8"?>
<svg width="558px" height="154px" viewBox="0 0 558 154" version="1.1" xmlns="http://www.w3.org/2000/svg" xmlns:xlink="http://www.w3.org/1999/xlink">
    <title>Logo/k</title>
    <defs>
        <polygon id="path-1" points="0 0.1184 66.3856 0.1184 66.3856 123 0 123"></polygon>
    </defs>
    <g id="Logo/k" stroke="none" stroke-width="1" fill="none" fill-rule="evenodd">
        <g id="Group-20">
            <g id="Group-3" transform="translate(0.000000, 30.700000)">
                <mask id="mask-2" fill="white">
                    <use xlink:href="#path-1"></use>
                </mask>
                <g id="Clip-2"></g>
                <path d="M12.0186,123.0004 L-0.0004,123.0004 L-0.0004,2.3744 L10.9816,2.3744 L10.9816,19.5314 L11.2706,19.5314 C15.2606,7.8304 23.7146,0.1184 35.4396,0.1184 C57.3136,0.1184 66.3856,24.8094 66.3856,46.1384 C66.3856,56.3074 64.6806,67.5034 60.0746,76.4064 C54.6796,86.2254 46.0896,93.0674 35.4396,93.0674 C24.6636,93.0674 17.4366,87.4624 12.0186,77.3034 L12.0186,123.0004 Z M12.0186,56.4654 C12.0186,68.7314 21.5946,81.4974 32.6696,81.4974 C39.3076,81.4974 45.4776,76.9474 48.6906,70.6514 C52.2456,63.8264 52.8486,54.5454 52.8486,46.6794 C52.8486,32.1524 48.8356,12.1884 32.6696,12.1884 C22.0336,12.1884 14.1816,22.8664 12.0186,33.9094 L12.0186,56.4654 Z" id="Fill-1" fill="#231F20" mask="url(#mask-2)"></path>
            </g>
            <path d="M134.3262,66.881 L134.3262,63.032 C134.3262,47.459 128.3002,41.494 114.4742,41.494 C104.5852,41.494 95.2012,45.011 93.0432,57.268 L81.8472,55.156 C83.9492,36.603 101.2272,30.816 115.5622,30.816 C123.9752,30.816 133.6912,31.881 139.5572,39.583 C145.9802,47.459 145.9802,58.641 145.9802,68.806 L145.9802,103.273 C145.9802,109.742 146.1582,116.254 147.7042,121.994 L135.6902,121.994 L134.3262,105.365 C128.7582,118.164 119.3742,123.77 106.9072,123.77 C92.2772,123.77 79.6652,114.493 79.6652,96.789 C79.6652,86.121 85.4722,76.503 94.1272,72.117 C102.9182,67.395 114.4742,66.881 124.1522,66.881 L134.3262,66.881 Z M134.3262,77.218 L124.3252,77.218 C112.0082,77.218 92.6182,79.133 92.6182,97.523 C92.6182,108.551 100.8762,113.059 109.5232,113.059 C124.3252,113.059 134.3262,98.719 134.3262,82.986 L134.3262,77.218 Z" id="Fill-4" fill="#231F20"></path>
            <path d="M202.3814,122.715 L190.8254,123.771 C173.7764,123.771 168.6474,112.378 168.6474,94.694 L168.6474,43.962 L154.8024,43.962 L154.8024,33.073 L168.6474,33.073 L168.6474,10.339 L180.6654,8.943 L180.6654,33.073 L198.0794,33.073 L198.0794,43.962 L180.6654,43.962 L180.6654,96.992 C180.6654,107.301 183.3044,112.724 193.1654,112.724 L202.3814,111.827 L202.3814,122.715 Z" id="Fill-6" fill="#231F20"></path>
            <path d="M272.3184,92.6096 C269.5254,110.6436 258.8754,123.7696 242.1104,123.7696 C218.8584,123.7696 208.8294,100.8306 208.8294,77.5496 C208.8294,54.4556 218.9884,30.8156 242.2744,30.8156 C259.1884,30.8156 269.6884,43.2456 272.3184,61.6076 L261.2104,63.8966 C260.1274,52.1676 253.8354,42.4096 242.6104,42.4096 C226.2474,42.4096 221.6374,61.8036 221.6374,76.6676 C221.6374,91.0446 225.5004,112.0266 241.7974,112.0266 C253.4894,112.0266 259.1884,102.4186 261.2104,90.3206 L272.3184,92.6096 Z" id="Fill-8" fill="#231F20"></path>
            <path d="M299.4019,33.0749 L299.4019,53.9219 L299.7289,53.9219 C303.3949,41.8569 310.0189,30.6139 322.6499,30.6139 L327.1299,30.9829 L327.1299,44.1269 L324.6579,44.1269 C315.4279,44.1269 308.9499,49.2189 304.4839,58.1309 C301.2649,64.5999 300.6539,70.1999 300.6539,77.2169 L300.6539,121.9929 L288.6349,121.9929 L288.6349,33.0749 L299.4019,33.0749 Z" id="Fill-10" fill="#231F20"></path>
            <path d="M389.9673,66.8932 L389.9673,63.0352 C389.9673,47.4192 383.9653,41.4922 370.1013,41.4922 C360.2453,41.4922 350.8283,45.0142 348.6893,57.2662 L337.4693,55.1542 C339.5853,36.6012 356.8543,30.8182 371.1903,30.8182 C379.6543,30.8182 389.3223,31.8832 395.2083,39.5812 C401.6553,47.4192 401.6553,58.6432 401.6553,68.8042 L401.6553,103.2752 C401.6553,109.7452 401.8513,116.2522 403.3403,122.0022 L391.3363,122.0022 L389.9673,105.3782 C384.4043,118.1622 375.0383,123.7682 362.5533,123.7682 C347.9093,123.7682 335.3113,114.4912 335.3113,96.7882 C335.3113,86.1192 341.1363,76.5012 349.7263,72.1202 C358.5593,67.4112 370.1013,66.8932 379.8083,66.8932 L389.9673,66.8932 Z M389.9673,77.2162 L379.9573,77.2162 C367.6023,77.2162 348.2323,79.1362 348.2323,97.5212 C348.2323,108.5302 356.5463,113.0572 365.1363,113.0572 C379.9573,113.0572 389.9673,98.7172 389.9673,82.9892 L389.9673,77.2162 Z" id="Fill-12" fill="#231F20"></path>
            <path d="M455.5455,43.9631 L437.4065,43.9631 L437.4065,122.0031 L425.3845,122.0031 L425.3845,43.9631 L411.5115,43.9631 L411.5115,33.0751 L425.3845,33.0751 C424.7675,14.3771 430.4665,-1.9069 449.3645,0.1811 L460.2255,1.4241 L460.2255,12.4381 C456.9795,11.7561 453.6945,11.0421 450.3175,11.0421 C437.0805,11.0421 437.2335,21.8931 437.4065,33.0751 L455.5455,33.0751 L455.5455,43.9631 Z" id="Fill-14" fill="#231F20"></path>
            <path d="M507.7125,122.715 L496.1565,123.771 C479.0605,123.771 474.0165,112.378 474.0165,94.694 L474.0165,43.962 L460.1515,43.962 L460.1515,33.073 L474.0165,33.073 L474.0165,10.339 L485.9785,8.961 L485.9785,33.073 L503.3975,33.073 L503.3975,43.962 L485.9785,43.962 L485.9785,96.992 C485.9785,107.301 488.6365,112.724 498.5155,112.724 L507.7125,111.827 L507.7125,122.715 Z" id="Fill-16" fill="#231F20"></path>
            <path d="M531.7906,117.01 C531.7906,110.05 537.6666,104.357 544.9306,104.357 C552.1426,104.357 557.9996,110.05 557.9996,117.01 C557.9996,124.129 552.1426,129.832 544.9306,129.832 C537.6666,129.832 531.7906,124.129 531.7906,117.01 L531.7906,117.01 Z M534.2806,117.01 C534.2806,122.83 539.0026,127.338 544.9306,127.338 C550.7696,127.338 555.5006,122.83 555.5006,117.01 C555.5006,111.386 550.7696,106.837 544.9306,106.837 C539.0026,106.837 534.2806,111.386 534.2806,117.01 L534.2806,117.01 Z M551.4606,124.199 L548.9716,124.199 L544.7856,117.631 L542.2166,117.631 L542.2166,124.199 L540.0586,124.199 L540.0586,109.943 L546.4436,109.943 C547.6626,109.943 548.8866,110.013 550.0176,110.629 C551.1046,111.241 551.6386,112.512 551.6386,113.698 C551.6386,116.51 549.6196,117.557 547.0226,117.631 L551.4606,124.199 Z M544.6036,115.862 C546.6536,115.862 549.4846,116.221 549.4846,113.661 C549.4846,111.816 547.8456,111.569 546.0146,111.569 L542.2166,111.569 L542.2166,115.862 L544.6036,115.862 Z" id="Fill-18" fill="#231F20"></path>
        </g>
    </g>
</svg>